<svg width="1860" height="281" viewBox="0 0 1860 281" fill="none" xmlns="http://www.w3.org/2000/svg">
<g clip-path="url(#clip0_509_147)">
<path d="M750.437 0L706.299 0V72.7329H723.954C738.563 72.7329 750.437 84.5723 750.437 99.2159V280.2H824.001V0L750.437 0Z" fill="white"/>
<path d="M1141.9 0L1097.76 0V72.7329H1115.42C1130.02 72.7329 1141.9 84.5723 1141.9 99.2159V280.2H1215.46V0L1141.9 0Z" fill="white"/>
<path d="M332.974 207.468L149.844 207.468V280.201H332.974V207.468Z" fill="white"/>
<path d="M335.848 0L149.844 0V72.7329L335.848 72.7329V0Z" fill="white"/>
<path d="M1492.55 92.5732L1334.24 92.5732V158.209L1492.55 158.209V92.5732Z" fill="white"/>
<path d="M1545.34 214.527V280.163H1591.65C1591.65 280.163 1858.46 73.1805 1859.25 72.6958L1856.55 8.7213C1849.77 4.9133 1847.79 3.80551 1841.01 -0.0371094L1774.68 42.1279" fill="white"/>
<path d="M1859.12 207.468H1786.77V280.201H1859.12V207.468Z" fill="white"/>
<path d="M1653.7 207.468H1581.35V280.201H1653.7V207.468Z" fill="white"/>
<path d="M1395.16 207.333L1142.59 207.333V280.204L1395.16 280.204V207.333Z" fill="white"/>
<path d="M1215.46 0L1142.59 0V273.657H1215.46V0Z" fill="white"/>
<path d="M149.114 280.2H149.841C205.611 279.958 254.181 251.951 279.452 207.467L149.841 207.467C149.599 207.467 149.357 207.467 149.114 207.467C109.165 207.467 76.797 182.265 76.797 143.285C76.797 104.305 109.165 72.6983 149.114 72.6983C149.357 72.6983 149.599 72.6983 149.841 72.6983L279.452 72.6983C254.146 28.2485 205.611 0.242328 149.841 0L149.114 0C66.7923 0 0.0483398 62.9706 0.0483398 143.285C0.0483398 223.599 66.7923 280.165 149.114 280.165V280.2Z" fill="white"/>
<path d="M678.152 0L450.606 0V72.7329L678.152 72.7329V0Z" fill="white"/>
<path d="M479.34 0L365.965 0V72.7329L452.857 72.7329C467.466 72.7329 479.34 84.5723 479.34 99.2159L479.34 280.2L552.903 280.2V0L479.34 0Z" fill="white"/>
<path d="M1544.51 0V99.9775L1612.12 99.9775V84.5031C1612.12 71.729 1622.36 71.6944 1634.97 71.6944L1859.22 72.7329V0L1544.47 0L1544.51 0Z" fill="white"/>
<path d="M1215.46 -0.00249114L1115.49 -0.00249114V67.6069H1130.96C1143.73 67.6069 1143.77 77.8539 1143.77 90.455L1142.73 92.5321L1215.46 92.5321V-0.0371094V-0.00249114Z" fill="white"/>
<path d="M1065.43 214.527V280.163H1019.11C1019.11 280.163 752.306 61.7564 751.51 61.2718L754.21 8.7213C760.995 4.9133 762.968 3.80551 769.754 -0.0371094L846.468 42.1279" fill="white"/>
<path d="M1061.96 280.201V214.53L981.405 214.253V280.201H1061.96Z" fill="white"/>
<path d="M823.998 43.5469L751.646 43.5469V280.197H823.998V43.5469Z" fill="white"/>
<path d="M1066.26 0V99.9775L998.646 99.9775V84.5031C998.646 71.729 988.399 71.6944 975.798 71.6944L751.541 72.7329V0L1066.29 0L1066.26 0Z" fill="white"/>
</g>
<defs>
<clipPath id="clip0_509_147">
<rect width="1859.21" height="280.2" fill="white" transform="translate(0.0483398)"/>
</clipPath>
</defs>
</svg>
